<svg width="26" height="26" viewBox="0 0 26 26" fill="none" xmlns="http://www.w3.org/2000/svg">
<g clip-path="url(#clip0_307_8902)">
<path d="M25.7887 24.2787L1.73048 0.207912C1.66397 0.141378 1.58499 0.088599 1.49808 0.0525899C1.41116 0.0165807 1.318 -0.00195312 1.22392 -0.00195312C1.12983 -0.00195312 1.03667 0.0165807 0.949757 0.0525899C0.862839 0.088599 0.783866 0.141378 0.717349 0.207912L0.211794 0.713468C0.145268 0.77996 0.0924955 0.858909 0.0564903 0.945802C0.0204851 1.0327 0.00195313 1.12583 0.00195312 1.21989C0.00195313 1.31395 0.0204851 1.40708 0.0564903 1.49398C0.0924955 1.58087 0.145268 1.65982 0.211794 1.72631L1.35579 2.87046C0.958597 3.08102 0.62603 3.39548 0.393588 3.78028C0.161147 4.16508 0.037555 4.60577 0.036005 5.05532V20.9442C0.036732 21.6049 0.299617 22.2383 0.766941 22.7054C1.23427 23.1724 1.86783 23.435 2.52854 23.4353H19.1389C19.5002 23.4341 19.8567 23.3538 20.1836 23.2C20.5105 23.0463 20.7998 22.8229 21.0311 22.5455L24.2768 25.7918C24.3434 25.8583 24.4224 25.9111 24.5094 25.9471C24.5964 25.9831 24.6896 26.0016 24.7837 26.0016C24.8779 26.0015 24.9711 25.9829 25.058 25.9467C25.145 25.9106 25.2239 25.8577 25.2904 25.791L25.7891 25.2907C25.9231 25.1563 25.9983 24.9743 25.9982 24.7846C25.9981 24.5949 25.9228 24.4129 25.7887 24.2787ZM19.1389 21.342H2.52854C2.42293 21.3419 2.32164 21.3 2.24682 21.2255C2.17201 21.151 2.12975 21.0498 2.12929 20.9442V5.05532C2.12975 4.94971 2.17201 4.84858 2.24682 4.77403C2.32164 4.69949 2.42293 4.6576 2.52854 4.65752H3.14257L19.5047 21.0196C19.4903 21.1073 19.446 21.1873 19.3793 21.2461C19.3127 21.3048 19.2277 21.3387 19.1389 21.342ZM19.1389 4.65752C19.2443 4.65787 19.3453 4.69989 19.4198 4.77442C19.4944 4.84894 19.5364 4.94993 19.5367 5.05532V14.7207C19.5367 14.9983 19.647 15.2645 19.8433 15.4608C20.0396 15.6571 20.3058 15.7673 20.5834 15.7673C20.861 15.7673 21.1272 15.6571 21.3235 15.4608C21.5197 15.2645 21.63 14.9983 21.63 14.7207V8.89841L23.8701 7.70443V19.03C23.8701 19.3076 23.9803 19.5738 24.1766 19.7701C24.3729 19.9664 24.6391 20.0767 24.9167 20.0767C25.1943 20.0767 25.4605 19.9664 25.6568 19.7701C25.8531 19.5738 25.9633 19.3076 25.9633 19.03V5.9581C25.9638 5.77721 25.9173 5.5993 25.8284 5.44176C25.7395 5.28422 25.6112 5.15243 25.4562 5.05928C25.3011 4.96613 25.1245 4.9148 24.9437 4.91031C24.7628 4.90582 24.5839 4.94832 24.4244 5.03366L21.6293 6.52505V5.05532C21.6287 4.39496 21.3661 3.76181 20.8993 3.29479C20.4324 2.82777 19.7993 2.56504 19.1389 2.56423H7.05889L9.15088 4.65752H19.1389Z" fill="white"/>
<path d="M1 1L25 25" stroke="#DF2868" stroke-width="2.2" stroke-linecap="round"/>
</g>
<defs>
<clipPath id="clip0_307_8902">
<rect width="26" height="26" fill="white"/>
</clipPath>
</defs>
</svg>
