<svg width="26" height="22" viewBox="0 0 26 22" fill="none" xmlns="http://www.w3.org/2000/svg">
<path d="M25.4554 3.05973C25.3002 2.96742 25.1238 2.91661 24.9432 2.91218C24.7627 2.90775 24.584 2.94986 24.4244 3.03445L21.63 4.52526V3.05554C21.6294 2.39505 21.3667 1.76179 20.8997 1.29475C20.4326 0.827715 19.7994 0.565065 19.1389 0.564453H2.52777C1.86728 0.565065 1.23402 0.827715 0.766981 1.29475C0.299944 1.76179 0.037294 2.39505 0.0366821 3.05554V18.9444C0.037294 19.6049 0.299944 20.2382 0.766981 20.7052C1.23402 21.1723 1.86728 21.4349 2.52777 21.4355H19.1389C19.7994 21.4349 20.4326 21.1723 20.8997 20.7052C21.3667 20.2382 21.6294 19.6049 21.63 18.9444V17.4747L24.4244 18.9655C24.5839 19.0509 24.7628 19.0934 24.9436 19.0889C25.1245 19.0844 25.3011 19.033 25.4561 18.9399C25.6112 18.8467 25.7394 18.715 25.8283 18.5574C25.9172 18.3999 25.9637 18.222 25.9633 18.0411V3.95832C25.9634 3.77744 25.9167 3.5996 25.8277 3.44213C25.7387 3.28466 25.6105 3.15292 25.4554 3.05973V3.05973ZM19.5367 18.9444C19.5363 19.0498 19.4943 19.1508 19.4198 19.2253C19.3453 19.2999 19.2443 19.3419 19.1389 19.3422H2.52777C2.42237 19.3419 2.32139 19.2999 2.24686 19.2253C2.17233 19.1508 2.13031 19.0498 2.12997 18.9444V3.05554C2.13031 2.95014 2.17233 2.84916 2.24686 2.77463C2.32139 2.70011 2.42237 2.65808 2.52777 2.65774H19.1389C19.2443 2.65808 19.3453 2.70011 19.4198 2.77463C19.4943 2.84916 19.5363 2.95014 19.5367 3.05554V18.9444ZM23.87 16.2953L21.63 15.1022V6.89776L23.87 5.70436V16.2953Z" fill="white"/>
</svg>
