<svg width="26" height="26" viewBox="0 0 26 26" fill="none" xmlns="http://www.w3.org/2000/svg">
<path d="M1.16667 23.0815V24.8999C1.06733 24.8211 1 24.6992 1 24.5506V1.44678C1 1.19851 1.2005 1 1.44444 1H24.5556C24.7995 1 25 1.19851 25 1.44678V18.8081C25 19.0564 24.7995 19.2549 24.5556 19.2549H9.88018C9.34066 19.2549 8.81645 19.4335 8.38915 19.7628L1.71481 24.9052C1.59822 24.995 1.4598 25.0156 1.33596 24.9839L2.777 23.8736L8.28877 19.6269C8.74522 19.2752 9.30472 19.0847 9.88018 19.0847H23.8333H24.8333V18.0847V2.17017V1.17017H23.8333H2.16667H1.16667V2.17017V23.0815Z" fill="white" stroke="white" stroke-width="2"/>
<path d="M8 8C15.9484 8 18.6452 8 19 8" stroke="white" stroke-width="2" stroke-linecap="round"/>
<path d="M8 12C14.5032 12 16.7097 12 17 12" stroke="white" stroke-width="2" stroke-linecap="round"/>
</svg>