<svg width="20" height="26" viewBox="0 0 20 26" fill="none" xmlns="http://www.w3.org/2000/svg">
<path d="M9.90857 17.4902H10.0916C11.2645 17.4902 12.3893 17.0243 13.2186 16.1949C14.048 15.3656 14.5139 14.2408 14.5139 13.0679V4.42231C14.5139 3.24944 14.048 2.12461 13.2186 1.29526C12.3893 0.465921 11.2645 2.35919e-09 10.0916 2.35919e-09L9.90857 2.35919e-09C9.32782 -1.89668e-05 8.75274 0.114353 8.21618 0.336587C7.67963 0.55882 7.1921 0.884562 6.78143 1.29521C6.37077 1.70587 6.04501 2.19338 5.82276 2.72993C5.60051 3.26648 5.48612 3.84155 5.48612 4.42231V13.0679C5.48612 13.6486 5.60051 14.2237 5.82276 14.7603C6.04501 15.2968 6.37077 15.7843 6.78143 16.195C7.1921 16.6056 7.67963 16.9314 8.21618 17.1536C8.75274 17.3758 9.32782 17.4902 9.90857 17.4902V17.4902ZM7.65279 4.42231C7.65351 3.82427 7.89141 3.25094 8.3143 2.82808C8.73719 2.40522 9.31054 2.16735 9.90857 2.16667H10.0916C10.6896 2.16735 11.2629 2.40522 11.6858 2.82809C12.1087 3.25096 12.3465 3.82429 12.3472 4.42231V13.0679C12.3466 13.6659 12.1087 14.2393 11.6858 14.6622C11.263 15.085 10.6896 15.3229 10.0916 15.3235H9.90857C9.31053 15.3229 8.73716 15.085 8.31426 14.6622C7.89136 14.2393 7.65347 13.6659 7.65279 13.0679V4.42231ZM18.2485 12.6756C18.1072 12.6592 17.964 12.6709 17.8271 12.71C17.6903 12.7491 17.5625 12.8148 17.4512 12.9034C17.3398 12.9919 17.247 13.1016 17.1781 13.2261C17.1092 13.3506 17.0655 13.4875 17.0496 13.6289C16.8508 15.3592 16.0226 16.956 14.7227 18.1152C13.4227 19.2743 11.7419 19.9149 10.0002 19.9149C8.25845 19.9149 6.57759 19.2743 5.27764 18.1152C3.97769 16.956 3.14947 15.3592 2.95069 13.6289C2.91448 13.3451 2.76891 13.0867 2.54498 12.9086C2.32105 12.7305 2.03646 12.6469 1.7518 12.6756C1.46642 12.7082 1.20568 12.8528 1.02691 13.0776C0.848138 13.3025 0.765966 13.5891 0.798463 13.8745C1.03221 15.9163 1.9394 17.822 3.37679 19.2908C4.81417 20.7597 6.69986 21.7079 8.73612 21.9857V24.7361C8.73612 25.0713 8.86928 25.3928 9.1063 25.6298C9.34333 25.8668 9.6648 26 10 26C10.3352 26 10.6567 25.8668 10.8937 25.6298C11.1307 25.3928 11.2639 25.0713 11.2639 24.7361V21.9857C13.3002 21.7079 15.1859 20.7598 16.6234 19.291C18.0609 17.8222 18.9681 15.9164 19.202 13.8746C19.2345 13.5892 19.1523 13.3025 18.9735 13.0776C18.7947 12.8528 18.5339 12.7082 18.2485 12.6756V12.6756Z" fill="white"/>
</svg>
