<svg width="26" height="26" viewBox="0 0 26 26" fill="none" xmlns="http://www.w3.org/2000/svg">
<g clip-path="url(#clip0_8_4367)">
<path d="M25.7889 24.2785L1.73083 0.207865C1.59645 0.0735188 1.41421 -0.00195313 1.22419 -0.00195312C1.03417 -0.00195313 0.851934 0.0735188 0.717553 0.207865L0.211997 0.713421C0.0777219 0.847722 0.00228882 1.02986 0.00228882 1.21977C0.00228882 1.40968 0.0777219 1.59182 0.211997 1.72612L8.48606 10.0006V13.0679C8.48606 13.6487 8.60046 14.2237 8.82271 14.7603C9.04496 15.2968 9.37071 15.7843 9.78138 16.195C10.192 16.6056 10.6796 16.9314 11.2161 17.1536C11.7527 17.3759 12.3278 17.4902 12.9085 17.4902H13.0915C13.8854 17.4885 14.6636 17.2692 15.3415 16.8561L17.0902 18.6039C16.0861 19.3177 14.9131 19.7573 13.6871 19.879C12.4611 20.0008 11.2246 19.8006 10.0997 19.2982C8.97473 18.7958 8.00035 18.0086 7.27278 17.0143C6.54522 16.0201 6.08964 14.8533 5.95106 13.6291C5.91486 13.3453 5.76929 13.0868 5.54536 12.9088C5.32143 12.7307 5.03683 12.6471 4.75217 12.6757C4.4668 12.7084 4.20606 12.853 4.02729 13.0778C3.84852 13.3026 3.76634 13.5892 3.79884 13.8746C4.0326 15.9163 4.93974 17.822 6.37703 19.2908C7.81433 20.7596 9.69991 21.7078 11.7361 21.9858V24.7361C11.7361 25.0713 11.8692 25.3928 12.1062 25.6298C12.3433 25.8668 12.6647 26 13 26C13.3352 26 13.6566 25.8668 13.8937 25.6298C14.1307 25.3928 14.2638 25.0713 14.2638 24.7361V21.9858C15.8536 21.7633 17.3564 21.1251 18.6204 20.1356L24.2772 25.7922C24.3437 25.8588 24.4226 25.9116 24.5096 25.9477C24.5965 25.9838 24.6897 26.0023 24.7839 26.0023C24.878 26.0023 24.9712 25.9838 25.0582 25.9477C25.1451 25.9116 25.2241 25.8588 25.2906 25.7922L25.7895 25.2919C25.856 25.2254 25.9088 25.1464 25.9448 25.0594C25.9808 24.9724 25.9993 24.8792 25.9992 24.7851C25.9992 24.691 25.9806 24.5978 25.9445 24.5109C25.9084 24.424 25.8555 24.345 25.7889 24.2785ZM13.0923 15.323H12.9085C12.3106 15.3223 11.7373 15.0845 11.3144 14.6618C10.8915 14.2391 10.6536 13.6658 10.6527 13.0679V12.1673L13.7087 15.2233C13.5088 15.286 13.3017 15.3192 13.0923 15.323ZM10.6527 4.42232C10.6535 3.82428 10.8914 3.25095 11.3142 2.82809C11.7371 2.40523 12.3105 2.16736 12.9085 2.16668H13.0915C13.6896 2.16736 14.2629 2.40523 14.6858 2.8281C15.1086 3.25097 15.3465 3.8243 15.3472 4.42232V10.8814L17.5138 13.0493V4.42232C17.5138 3.24945 17.0479 2.12462 16.2186 1.29527C15.3892 0.46593 14.2644 9.38051e-06 13.0915 9.38051e-06H12.9085C11.8022 0.00212722 10.7371 0.420187 9.92471 1.17119C9.11232 1.92219 8.61204 2.95122 8.52319 4.05399L10.6527 6.18454V4.42232ZM22.2019 13.8746C22.2281 13.5925 22.1427 13.3113 21.964 13.0914C21.7853 12.8715 21.5276 12.7303 21.246 12.6982C20.9645 12.6661 20.6816 12.7455 20.4579 12.9195C20.2343 13.0936 20.0878 13.3483 20.0497 13.6291C19.9821 14.166 19.8529 14.6934 19.6646 15.2008L21.3315 16.8687C21.7895 15.9273 22.0839 14.9148 22.2019 13.8746Z" fill="white"/>
<path d="M1 1L25 25" stroke="#FA50B5" stroke-width="2.2" stroke-linecap="round"/>
</g>
<defs>
<clipPath id="clip0_8_4367">
<rect width="26" height="26" fill="white"/>
</clipPath>
</defs>
</svg>
