<svg width="151" height="35" viewBox="0 0 151 35" fill="none" xmlns="http://www.w3.org/2000/svg">
<path opacity="0.7" fill-rule="evenodd" clip-rule="evenodd" d="M83.7037 28.0286C84.9268 29.2645 86.8487 29.2645 87.9844 28.0286C89.2075 26.7927 89.2075 24.8505 87.9844 23.7029L65.4451 0.926929C64.2221 -0.308976 62.3001 -0.308976 61.1644 0.926929C60.0287 2.16283 59.9413 4.10497 61.1644 5.25259L83.7037 28.0286Z" fill="url(#paint0_linear_259_5307)"/>
<path fill-rule="evenodd" clip-rule="evenodd" d="M65.4451 28.2934C64.2221 29.5294 62.3001 29.5294 61.1644 28.2934C60.0287 27.0575 59.9413 25.1154 61.1644 23.9678L83.7037 1.19182C84.9268 -0.0440835 86.8487 -0.0440835 87.9844 1.19182C89.1202 2.42773 89.2075 4.36986 87.9844 5.51749L65.4451 28.2934Z" fill="url(#paint1_linear_259_5307)"/>
<path opacity="0.7" fill-rule="evenodd" clip-rule="evenodd" d="M44.5657 22.8201C48.4096 22.8201 51.5546 19.6421 51.5546 15.7578V3.22223C51.5546 1.45665 52.865 0.0441895 54.6122 0.0441895C56.3595 0.0441895 57.6699 1.45665 57.6699 3.22223V15.6696C57.6699 22.9967 51.8167 28.9114 44.5657 28.9114C42.9058 28.9114 41.508 27.4989 41.508 25.8216C41.5954 24.1443 42.9058 22.8201 44.5657 22.8201Z" fill="url(#paint2_linear_259_5307)"/>
<path opacity="0.7" fill-rule="evenodd" clip-rule="evenodd" d="M25.7829 0.30896C24.0357 0.30896 22.7253 1.72142 22.7253 3.487V25.9981C22.7253 27.7637 24.0357 29.1762 25.7829 29.1762C27.5302 29.1762 28.8406 27.7637 28.8406 25.9981V3.487C28.8406 1.72142 27.5302 0.30896 25.7829 0.30896Z" fill="url(#paint3_linear_259_5307)"/>
<path fill-rule="evenodd" clip-rule="evenodd" d="M54.6123 6.22371C56.301 6.22371 57.6699 4.84038 57.6699 3.13395C57.6699 1.42752 56.301 0.0441895 54.6123 0.0441895C52.9236 0.0441895 51.5546 1.42752 51.5546 3.13395C51.5546 4.84038 52.9236 6.22371 54.6123 6.22371Z" fill="url(#paint4_linear_259_5307)"/>
<path fill-rule="evenodd" clip-rule="evenodd" d="M86.0625 29.1762C87.7512 29.1762 89.1201 27.7929 89.1201 26.0865C89.1201 24.38 87.7512 22.9967 86.0625 22.9967C84.3738 22.9967 83.0048 24.38 83.0048 26.0865C83.0048 27.7929 84.3738 29.1762 86.0625 29.1762Z" fill="url(#paint5_linear_259_5307)"/>
<path fill-rule="evenodd" clip-rule="evenodd" d="M3.06889 0.30896C1.32166 0.30896 0.0112305 1.72142 0.0112305 3.487V25.9981C0.0112305 27.7637 1.32166 29.1762 3.06889 29.1762C4.81612 29.1762 6.12655 27.7637 6.12655 25.9981V3.487C6.12655 1.72142 4.81612 0.30896 3.06889 0.30896Z" fill="url(#paint6_linear_259_5307)"/>
<path fill-rule="evenodd" clip-rule="evenodd" d="M25.7829 29.1762C27.4716 29.1762 28.8406 27.7929 28.8406 26.0865C28.8406 24.38 27.4716 22.9967 25.7829 22.9967C24.0942 22.9967 22.7253 24.38 22.7253 26.0865C22.7253 27.7929 24.0942 29.1762 25.7829 29.1762Z" fill="url(#paint7_linear_259_5307)"/>
<path opacity="0.7" fill-rule="evenodd" clip-rule="evenodd" d="M12.1545 16.7288C13.3776 17.9647 15.2995 17.9647 16.4352 16.7288C17.5709 15.4929 17.6583 13.5508 16.4352 12.4032L5.16556 1.01519C4.02986 -0.220719 2.1079 -0.220719 0.88484 1.01519C-0.338223 2.25109 -0.250862 4.19323 0.88484 5.34085L12.1545 16.7288Z" fill="url(#paint8_linear_259_5307)"/>
<path fill-rule="evenodd" clip-rule="evenodd" d="M16.61 16.7288C15.3869 17.9647 13.4649 17.9647 12.3292 16.7288C11.1935 15.4929 11.1062 13.5508 12.3292 12.4032L23.5989 1.01519C24.822 -0.220719 26.7439 -0.220719 27.8796 1.01519C29.1027 2.25109 29.1027 4.19323 27.8796 5.34085L16.61 16.7288Z" fill="url(#paint9_linear_259_5307)"/>
<path fill-rule="evenodd" clip-rule="evenodd" d="M44.5657 22.8201C40.7218 22.8201 37.5767 19.6421 37.5767 15.7578V3.22223C37.5767 1.45665 36.2663 0.0441895 34.5191 0.0441895C32.7719 0.0441895 31.4614 1.45665 31.4614 3.22223V15.6696C31.4614 22.9967 37.3147 28.9114 44.5657 28.9114C46.2256 28.9114 47.6233 27.4989 47.6233 25.8216C47.536 24.1443 46.2256 22.8201 44.5657 22.8201Z" fill="url(#paint10_linear_259_5307)"/>
<path d="M103.105 18.17H101.725L97.1201 29.195H98.5001L103.105 18.17Z" fill="#D91377"/>
<path d="M116.448 29V18.365H113.973L111.168 25.94L108.378 18.365H105.768V29H107.643V21.32L110.388 28.85H111.813L114.573 21.41V29H116.448ZM128.159 29V27.245H122.519V24.335H127.484V22.595H122.519V20.12H128.159V18.365H120.584V29H128.159ZM139.224 29V27.245H133.584V24.335H138.549V22.595H133.584V20.12H139.224V18.365H131.649V29H139.224ZM149.795 20.165V18.365H141.56V20.165H144.71V29H146.645V20.165H149.795Z" fill="white"/>
<defs>
<linearGradient id="paint0_linear_259_5307" x1="-0.862389" y1="59.8871" x2="88.9028" y2="59.8871" gradientUnits="userSpaceOnUse">
<stop stop-color="#FF4E00"/>
<stop offset="1" stop-color="#FF1791"/>
</linearGradient>
<linearGradient id="paint1_linear_259_5307" x1="0.229635" y1="59.6423" x2="88.9028" y2="59.6423" gradientUnits="userSpaceOnUse">
<stop stop-color="#FF4E00"/>
<stop offset="1" stop-color="#FF1791"/>
</linearGradient>
<linearGradient id="paint2_linear_259_5307" x1="90.9883" y1="-66.693" x2="0.0933126" y2="-66.693" gradientUnits="userSpaceOnUse">
<stop stop-color="#FF4E00"/>
<stop offset="1" stop-color="#FF1791"/>
</linearGradient>
<linearGradient id="paint3_linear_259_5307" x1="-0.682324" y1="229.272" x2="90.2127" y2="229.272" gradientUnits="userSpaceOnUse">
<stop stop-color="#FF4E00"/>
<stop offset="1" stop-color="#FF1791"/>
</linearGradient>
<linearGradient id="paint4_linear_259_5307" x1="-0.0615733" y1="48.1022" x2="88.976" y2="48.1022" gradientUnits="userSpaceOnUse">
<stop stop-color="#FF4E00"/>
<stop offset="1" stop-color="#FF1791"/>
</linearGradient>
<linearGradient id="paint5_linear_259_5307" x1="-1.80983" y1="72.0291" x2="89.0852" y2="72.0291" gradientUnits="userSpaceOnUse">
<stop stop-color="#FF4E00"/>
<stop offset="1" stop-color="#FF1791"/>
</linearGradient>
<linearGradient id="paint6_linear_259_5307" x1="-0.900738" y1="229.272" x2="89.9943" y2="229.272" gradientUnits="userSpaceOnUse">
<stop stop-color="#FF4E00"/>
<stop offset="1" stop-color="#FF1791"/>
</linearGradient>
<linearGradient id="paint7_linear_259_5307" x1="-0.818694" y1="72.2787" x2="90.6058" y2="72.2787" gradientUnits="userSpaceOnUse">
<stop stop-color="#FF4E00"/>
<stop offset="1" stop-color="#FF1791"/>
</linearGradient>
<linearGradient id="paint8_linear_259_5307" x1="0.448032" y1="54.1966" x2="89.8204" y2="54.1966" gradientUnits="userSpaceOnUse">
<stop stop-color="#FF4E00"/>
<stop offset="1" stop-color="#FF1791"/>
</linearGradient>
<linearGradient id="paint9_linear_259_5307" x1="0.229643" y1="53.2068" x2="87.8141" y2="53.2068" gradientUnits="userSpaceOnUse">
<stop stop-color="#FF4E00"/>
<stop offset="1" stop-color="#FF1791"/>
</linearGradient>
<linearGradient id="paint10_linear_259_5307" x1="-1.37006" y1="95.6569" x2="89.525" y2="95.6569" gradientUnits="userSpaceOnUse">
<stop stop-color="#FF4E00"/>
<stop offset="1" stop-color="#FF1791"/>
</linearGradient>
</defs>
</svg>
