<svg width="196" height="44" viewBox="0 0 196 44" fill="none" xmlns="http://www.w3.org/2000/svg">
<path d="M143.985 27.17H142.605L138 38.195H139.38L143.985 27.17Z" fill="#FA50B5"/>
<path d="M157.328 38V27.365H154.853L152.048 34.94L149.258 27.365H146.648V38H148.523V30.32L151.268 37.85H152.693L155.453 30.41V38H157.328ZM169.039 38V36.245H163.399V33.335H168.364V31.595H163.399V29.12H169.039V27.365H161.464V38H169.039ZM180.104 38V36.245H174.464V33.335H179.429V31.595H174.464V29.12H180.104V27.365H172.529V38H180.104ZM190.675 29.165V27.365H182.44V29.165H185.59V38H187.525V29.165H190.675Z" fill="white"/>
<path d="M79.5432 0C76.7824 0 74.5448 2.2384 74.5448 4.9992V20C74.5448 25.5152 70.0576 30.0024 64.5424 30.0024C59.0272 30.0024 54.54 25.5152 54.54 20V4.9992C54.54 2.2384 52.3016 0 49.5416 0C46.7816 0 44.5432 2.2384 44.5432 4.9992V20C44.5432 31.028 53.5152 40 64.5432 40C75.5712 40 84.5432 31.028 84.5432 20V4.9992C84.5432 2.2384 82.3048 0 79.5448 0H79.5432ZM79.5432 7.4792C78.1736 7.4792 77.0632 6.3688 77.0632 4.9992C77.0632 3.6296 78.1736 2.5192 79.5432 2.5192C80.9128 2.5192 82.0232 3.6296 82.0232 4.9992C82.0232 6.3688 80.9128 7.4792 79.5432 7.4792Z" fill="white"/>
<path d="M100.93 20L89.464 31.4664C87.512 33.4184 87.512 36.584 89.464 38.536C91.416 40.488 94.5816 40.488 96.5336 38.536L108 27.0696L119.466 38.536C121.418 40.488 124.584 40.488 126.536 38.536C128.488 36.584 128.488 33.4184 126.536 31.4664L115.07 20L126.536 8.5336C128.488 6.5816 128.488 3.416 126.536 1.464C124.584 -0.488 121.418 -0.488 119.466 1.464L108 12.9304L96.5336 1.464C94.5816 -0.488 91.416 -0.488 89.464 1.464C87.512 3.416 87.512 6.5816 89.464 8.5336L100.93 20ZM123.001 37.4808C121.631 37.4808 120.521 36.3704 120.521 35.0008C120.521 33.6312 121.631 32.5208 123.001 32.5208C124.37 32.5208 125.481 33.6312 125.481 35.0008C125.481 36.3704 124.37 37.4808 123.001 37.4808Z" fill="white"/>
<path d="M36.9144 0.380697C35.0464 -0.392903 32.896 0.0342972 31.4664 1.4639L20 12.9303L8.5336 1.4639C7.104 0.0342972 4.9536 -0.392903 3.0856 0.380697C1.2176 1.1543 0 2.9767 0 4.9991V35.0007C0 37.7615 2.2384 39.9999 4.9992 39.9999C7.76 39.9999 9.9984 37.7615 9.9984 35.0007V17.0671L16.4656 23.5343C18.4176 25.4863 21.5832 25.4863 23.5352 23.5343L30.0024 17.0671V35.0007C30.0024 37.7615 32.2408 39.9999 35.0016 39.9999C37.7624 39.9999 40.0008 37.7615 40.0008 35.0007V4.9991C40.0008 2.9775 38.7832 1.1543 36.9152 0.380697H36.9144ZM35.0016 37.4815C33.632 37.4815 32.5216 36.3711 32.5216 35.0015C32.5216 33.6319 33.632 32.5215 35.0016 32.5215C36.3712 32.5215 37.4816 33.6319 37.4816 35.0015C37.4816 36.3711 36.3712 37.4815 35.0016 37.4815Z" fill="white"/>
</svg>
