<svg width="26" height="24" viewBox="0 0 26 24" fill="none" xmlns="http://www.w3.org/2000/svg">
<path d="M24.9503 0.0847168H1.04968C0.911748 0.0847167 0.775169 0.111901 0.64775 0.164715C0.520332 0.21753 0.404571 0.294939 0.307086 0.392518C0.209601 0.490096 0.132304 0.605931 0.0796121 0.733401C0.0269203 0.86087 -0.000132376 0.997475 4.87025e-07 1.13541V17.8118C-0.000113377 17.9497 0.0269523 18.0863 0.0796508 18.2138C0.132349 18.3412 0.209648 18.4571 0.307129 18.5546C0.40461 18.6522 0.520363 18.7296 0.647773 18.7825C0.775183 18.8353 0.911753 18.8625 1.04968 18.8625H11.7361V21.7485H9.85703C9.70623 21.7343 9.55413 21.7518 9.41046 21.7998C9.2668 21.8478 9.13475 21.9253 9.02275 22.0273C8.91075 22.1292 8.82127 22.2535 8.76005 22.392C8.69882 22.5306 8.6672 22.6804 8.6672 22.8318C8.6672 22.9833 8.69882 23.1331 8.76005 23.2716C8.82127 23.4102 8.91075 23.5344 9.02275 23.6364C9.13475 23.7384 9.2668 23.8158 9.41046 23.8638C9.55413 23.9118 9.70623 23.9293 9.85703 23.9152H16.143C16.2938 23.9293 16.4459 23.9118 16.5895 23.8638C16.7332 23.8158 16.8653 23.7384 16.9773 23.6364C17.0893 23.5344 17.1787 23.4102 17.24 23.2716C17.3012 23.1331 17.3328 22.9833 17.3328 22.8318C17.3328 22.6804 17.3012 22.5306 17.24 22.392C17.1787 22.2535 17.0893 22.1292 16.9773 22.0273C16.8653 21.9253 16.7332 21.8478 16.5895 21.7998C16.4459 21.7518 16.2938 21.7343 16.143 21.7485H14.2639V18.8625H24.9503C25.0882 18.8625 25.2248 18.8353 25.3522 18.7825C25.4796 18.7296 25.5954 18.6522 25.6929 18.5546C25.7904 18.4571 25.8676 18.3412 25.9203 18.2138C25.973 18.0863 26.0001 17.9497 26 17.8118V1.13541C26.0001 0.997475 25.9731 0.86087 25.9204 0.733401C25.8677 0.605931 25.7904 0.490096 25.6929 0.392518C25.5954 0.294939 25.4797 0.21753 25.3522 0.164715C25.2248 0.111901 25.0883 0.0847167 24.9503 0.0847168V0.0847168ZM23.9009 16.7611H2.09936V2.18581H23.9009V16.7611Z" fill="white"/>
</svg>
