<svg width="26" height="24" viewBox="0 0 26 24" fill="none" xmlns="http://www.w3.org/2000/svg">
<path d="M24.9503 0H1.04968C0.911748 -6.39856e-08 0.775169 0.027182 0.64775 0.0799923C0.520332 0.132803 0.404571 0.210206 0.307086 0.307777C0.209601 0.405348 0.132304 0.521174 0.0796121 0.648633C0.0269203 0.776092 -0.000132376 0.912686 4.87025e-07 1.05061V17.7257C-0.000113377 17.8636 0.0269523 18.0002 0.0796508 18.1276C0.132349 18.2551 0.209648 18.3709 0.307129 18.4685C0.40461 18.566 0.520363 18.6434 0.647773 18.6963C0.775183 18.7491 0.911753 18.7763 1.04968 18.7763H11.7361V21.6621H9.85703C9.70623 21.6479 9.55413 21.6654 9.41046 21.7134C9.2668 21.7614 9.13475 21.8388 9.02275 21.9408C8.91075 22.0428 8.82127 22.167 8.76005 22.3055C8.69882 22.4441 8.6672 22.5939 8.6672 22.7453C8.6672 22.8968 8.69882 23.0466 8.76005 23.1851C8.82127 23.3236 8.91075 23.4479 9.02275 23.5498C9.13475 23.6518 9.2668 23.7293 9.41046 23.7773C9.55413 23.8252 9.70623 23.8427 9.85703 23.8286H16.143C16.2938 23.8427 16.4459 23.8252 16.5895 23.7773C16.7332 23.7293 16.8653 23.6518 16.9773 23.5498C17.0893 23.4479 17.1787 23.3236 17.24 23.1851C17.3012 23.0466 17.3328 22.8968 17.3328 22.7453C17.3328 22.5939 17.3012 22.4441 17.24 22.3055C17.1787 22.167 17.0893 22.0428 16.9773 21.9408C16.8653 21.8388 16.7332 21.7614 16.5895 21.7134C16.4459 21.6654 16.2938 21.6479 16.143 21.6621H14.2639V18.7763H24.9503C25.0882 18.7763 25.2248 18.7491 25.3522 18.6963C25.4796 18.6434 25.5954 18.566 25.6929 18.4685C25.7904 18.3709 25.8676 18.2551 25.9203 18.1276C25.973 18.0002 26.0001 17.8636 26 17.7257V1.05061C26.0001 0.912686 25.9731 0.776092 25.9204 0.648633C25.8677 0.521174 25.7904 0.405348 25.6929 0.307777C25.5954 0.210206 25.4797 0.132803 25.3522 0.0799923C25.2248 0.027182 25.0883 -6.39856e-08 24.9503 0V0ZM23.9009 16.6751H2.09936V2.10092H23.9009V16.6751Z" fill="#DF2868"/>
</svg>
