<svg width="18" height="15" viewBox="0 0 18 15" fill="none" xmlns="http://www.w3.org/2000/svg">
<path fill-rule="evenodd" clip-rule="evenodd" d="M1.73017 0.0173307C1.80898 0.0317802 1.88469 0.0551139 1.95623 0.0862568L17.351 6.35743C17.8836 6.57437 18.1397 7.18247 17.9229 7.71563C17.8736 7.83697 17.8041 7.94397 17.7198 8.03432C17.6199 8.14162 17.4956 8.2294 17.3509 8.28833L1.93376 14.5686C1.40118 14.7856 0.793761 14.5292 0.577051 13.9961C0.523763 13.8649 0.499061 13.7293 0.500027 13.5961L0.5 13.5885V9.32643C0.5 8.77934 0.912917 8.32975 1.44088 8.27877V8.27711L7.53524 7.79643L14.0128 7.49601L14.0256 7.4966C14.1214 7.50097 14.2026 7.42681 14.207 7.33098C14.2113 7.23514 14.1372 7.15391 14.0413 7.14954L10.6118 6.99323L1.4899 6.29494V6.29285C0.93885 6.266 0.500323 5.81072 0.500323 5.25301V1.06465C0.498839 0.996311 0.5041 0.927266 0.516501 0.858458C0.540539 0.723389 0.590565 0.597324 0.661219 0.485632C0.820706 0.23351 1.0853 0.0546223 1.39333 0.010708C1.50353 -0.00525322 1.6172 -0.00363203 1.73017 0.0173307Z" fill="#292929"/>
</svg>
